<?xml version="1.0" encoding="UTF-8" standalone="no"?>
<!-- Created with Inkscape (http://www.inkscape.org/) -->

<svg
   xmlns:dc="http://purl.org/dc/elements/1.1/"
   xmlns:cc="http://creativecommons.org/ns#"
   xmlns:rdf="http://www.w3.org/1999/02/22-rdf-syntax-ns#"
   xmlns:svg="http://www.w3.org/2000/svg"
   xmlns="http://www.w3.org/2000/svg"
   xmlns:sodipodi="http://sodipodi.sourceforge.net/DTD/sodipodi-0.dtd"
   xmlns:inkscape="http://www.inkscape.org/namespaces/inkscape"
   width="36"
   height="36"
   viewBox="0 0 35.999999 35.999998"
   id="svg2"
   version="1.1"
   inkscape:version="0.91 r13725"
   sodipodi:docname="heart2.svg">
  <defs
     id="defs4" />
  <sodipodi:namedview
     id="base"
     pagecolor="#ffffff"
     bordercolor="#666666"
     borderopacity="1.0"
     inkscape:pageopacity="0.0"
     inkscape:pageshadow="2"
     inkscape:zoom="3.8242692"
     inkscape:cx="46.939919"
     inkscape:cy="7.4091493"
     inkscape:document-units="px"
     inkscape:current-layer="layer1"
     showgrid="false"
     inkscape:window-width="1440"
     inkscape:window-height="851"
     inkscape:window-x="0"
     inkscape:window-y="0"
     inkscape:window-maximized="1"
     inkscape:snap-page="true"
     units="px" />
  <metadata
     id="metadata7">
    <rdf:RDF>
      <cc:Work
         rdf:about="">
        <dc:format>image/svg+xml</dc:format>
        <dc:type
           rdf:resource="http://purl.org/dc/dcmitype/StillImage" />
        <dc:title></dc:title>
      </cc:Work>
    </rdf:RDF>
  </metadata>
  <g
     inkscape:label="Layer 1"
     inkscape:groupmode="layer"
     id="layer1"
     transform="translate(0,-1016.3622)">
    <g
       id="g3472"
       transform="matrix(0.05784772,0,0,0.06237104,0.53883931,1015.2361)"
       style="fill:#ffffff">
      <g
         id="g3432"
         style="fill:#ffffff">
        <path
           id="path3434"
           d="M 562.519,70.476 C 532.247,40.523 488.62,21.321 442.722,21.321 415.7,21.321 390.31,27.502 365.899,39.878 341.48,52.246 321.626,69.17 306,90.657 290.375,69.17 270.519,52.246 246.102,39.877 221.684,27.502 196.294,21.32 169.279,21.32 123.381,21.32 79.761,40.523 49.482,70.475 19.209,100.422 0,144.042 0,189.947 c 0,31.571 6.708,62.218 14.973,85.289 4.104,11.438 10.306,23.834 18.556,36.46 8.348,12.771 15.952,23.438 22.459,31.896 6.514,8.467 15.792,19.049 28.321,31.252 12.535,12.215 22.786,21.812 30.272,28.646 7.486,6.842 18.876,16.939 33.856,29.953 17.244,14.98 29.543,26.133 37.439,33.203 7.729,6.924 18.883,17.576 33.529,31.578 29.626,28.312 51.363,54.404 71.941,84.309 3.84,5.584 8.792,8.139 14.646,8.139 6.188,0 11.542,-2.5 15.299,-8.139 13.175,-19.758 28.404,-39.967 46.225,-59.898 17.987,-20.111 32.96,-35.717 44.926,-46.877 12.126,-11.307 29.557,-27.084 52.086,-47.197 13.931,-12.445 25.063,-21.812 32.557,-28.646 7.486,-6.84 17.251,-16.279 29.3,-28.32 12.043,-12.049 21.563,-22.404 28.321,-30.932 6.917,-8.723 14.223,-19.273 22.459,-31.898 16.827,-25.786 24.195,-46.203 30.272,-74.871 3.027,-14.306 4.556,-28.974 4.556,-43.946 C 612,144.042 592.791,100.422 562.519,70.476 Z m 10.417,152.673 c -6.271,36.12 -25.14,71.545 -56.642,106.449 -13.75,15.23 -38.987,39.475 -75.851,72.268 -19.126,17.016 -34.501,30.932 -46.551,41.996 -11.716,10.75 -26.126,25.307 -43.293,43.619 -17.015,18.146 -31.904,36.133 -44.6,53.711 -13.348,-17.25 -28.73,-34.752 -46.224,-52.738 -17.661,-18.146 -31.251,-31.898 -41.342,-41.016 -10.091,-9.111 -25.466,-22.703 -46.551,-41.342 l -22.459,-19.855 -20.508,-18.557 c -8.882,-8.035 -15.716,-14.57 -20.182,-19.529 -4.319,-4.805 -10.09,-11.07 -17.25,-18.883 C 84.323,321.459 78.816,314.606 75.204,309.09 67.746,297.68 55.064,280.652 50.467,266.443 L 42.98,243.331 c -5.458,-16.848 -7.16,-34.182 -7.16,-53.384 0,-36.46 13.021,-67.711 39.064,-93.428 26.369,-26.042 57.621,-39.064 94.4,-39.064 25.716,0 49.481,6.833 71.295,20.834 21.813,13.993 38.626,32.446 49.481,55.662 3.146,6.736 8.466,10.091 15.952,10.091 7.486,0 13.271,-3.125 16.605,-10.091 10.993,-22.994 26.695,-41.669 48.502,-55.662 21.807,-14.001 45.897,-20.834 71.614,-20.834 36.786,0 68.038,13.021 94.081,38.738 26.043,25.717 39.063,56.968 39.063,93.754 -0.011,11.389 -1.073,22.445 -2.941,33.202 z"
           inkscape:connector-curvature="0"
           style="fill:#ffffff" />
      </g>
      <g
         id="g3436"
         style="fill:#ffffff" />
      <g
         id="g3438"
         style="fill:#ffffff" />
      <g
         id="g3440"
         style="fill:#ffffff" />
      <g
         id="g3442"
         style="fill:#ffffff" />
      <g
         id="g3444"
         style="fill:#ffffff" />
      <g
         id="g3446"
         style="fill:#ffffff" />
      <g
         id="g3448"
         style="fill:#ffffff" />
      <g
         id="g3450"
         style="fill:#ffffff" />
      <g
         id="g3452"
         style="fill:#ffffff" />
      <g
         id="g3454"
         style="fill:#ffffff" />
      <g
         id="g3456"
         style="fill:#ffffff" />
      <g
         id="g3458"
         style="fill:#ffffff" />
      <g
         id="g3460"
         style="fill:#ffffff" />
      <g
         id="g3462"
         style="fill:#ffffff" />
      <g
         id="g3464"
         style="fill:#ffffff" />
    </g>
  </g>
</svg>
